<svg xmlns="http://www.w3.org/2000/svg" xmlns:xlink="http://www.w3.org/1999/xlink" viewBox="0 0 319.07 68"><defs><linearGradient id="a" y1="68" x2="58.63" y2="9.37" gradientUnits="userSpaceOnUse"><stop offset="0" stop-color="#ed1c24"/><stop offset="0.4" stop-color="#ea1179"/><stop offset="1" stop-color="#e400ff"/></linearGradient></defs><title>jeffe</title><path d="M32,0h4A32,32,0,0,1,68,32v4A32,32,0,0,1,36,68H0a0,0,0,0,1,0,0V32A32,32,0,0,1,32,0Z" style="fill:url(#a)"/><path d="M287.17,500.4H302v41q0,9.52-5.42,14.66T282,561.16q-9.62,0-15.42-5.4t-5.8-15.34h14.72a8.89,8.89,0,0,0,1.56,5.7,5.45,5.45,0,0,0,4.51,1.93,5.17,5.17,0,0,0,4.15-1.71,7.46,7.46,0,0,0,1.48-5Z" transform="translate(-182 -496)"/><path d="M351.17,512.14H328.73v12.17h19.84v11.31H328.73v13.2h22.44v11.74H313.93V500.4h37.24Z" transform="translate(-182 -496)"/><path d="M360.78,500.4h39.57v11.74H375.59v12.68h18.53v11.4H375.59v24.34H360.78Z" transform="translate(-182 -496)"/><path d="M408.15,500.4h39.58v11.74H423v12.68h18.53v11.4H423v24.34H408.15Z" transform="translate(-182 -496)"/><path d="M500.81,540.17H467.3a9.92,9.92,0,0,0,2.9,6.81,8.92,8.92,0,0,0,6.28,2.35q5.53,0,7.71-4.62H500a21.4,21.4,0,0,1-4.37,8.48,21.85,21.85,0,0,1-7.93,5.92A25.81,25.81,0,0,1,477,561.25a26.16,26.16,0,0,1-12.65-3,21.51,21.51,0,0,1-8.66-8.57,29,29,0,0,1,0-26.06,21.17,21.17,0,0,1,8.62-8.57,28.3,28.3,0,0,1,25.2-.08,21,21,0,0,1,8.53,8.31,25,25,0,0,1,3.07,12.6A35.73,35.73,0,0,1,500.81,540.17ZM485.92,532a7.52,7.52,0,0,0-2.6-6,9.65,9.65,0,0,0-6.49-2.23,9.07,9.07,0,0,0-9.44,8.23Z" transform="translate(-182 -496)"/></svg>